<svg width="240" height="141" viewBox="0 0 240 141" fill="none" xmlns="http://www.w3.org/2000/svg">
<path d="M127.5 29H114L95 136H144L127.5 29Z" fill="#D9D9D9" stroke="black" stroke-width="0.5"/>
<path d="M236 138.5L232 126.5C234.098 121.996 235.318 122.509 239 125.5C239 125.5 236 137.5 236 138.5Z" fill="black"/>
<path d="M5.5 138.5L8.5 127C5.67598 122.703 3.87649 122.684 1 127L5.5 138.5Z" fill="black"/>
<path d="M236 138.5L235.526 138.658C235.603 138.891 235.838 139.033 236.08 138.994C236.322 138.954 236.5 138.745 236.5 138.5H236ZM239 125.5L239.485 125.621L239.562 125.313L239.315 125.112L239 125.5ZM5.5 138.5L5.03438 138.682L5.59527 140.116L5.98381 138.626L5.5 138.5ZM1 127L0.583939 126.723C0.493376 126.859 0.474873 127.03 0.534379 127.182L1 127ZM198.604 94.805C202.961 100.465 207.371 107.012 212.603 112.855C217.849 118.714 223.969 123.927 231.82 126.966L232.18 126.034C224.531 123.073 218.535 117.982 213.348 112.188C208.147 106.379 203.808 99.9258 199.396 94.195L198.604 94.805ZM231.526 126.658L235.526 138.658L236.474 138.342L232.474 126.342L231.526 126.658ZM236.5 138.5C236.5 138.434 236.534 138.19 236.62 137.749C236.701 137.332 236.817 136.786 236.957 136.155C237.237 134.894 237.611 133.303 237.986 131.742C238.361 130.181 238.736 128.65 239.017 127.51C239.157 126.94 239.274 126.468 239.356 126.138C239.397 125.973 239.43 125.844 239.451 125.756C239.462 125.712 239.471 125.678 239.477 125.656C239.479 125.644 239.481 125.636 239.483 125.63C239.484 125.627 239.484 125.625 239.485 125.623C239.485 125.623 239.485 125.622 239.485 125.622C239.485 125.622 239.485 125.621 239.485 125.621C239.485 125.621 239.485 125.621 239 125.5C238.515 125.379 238.515 125.379 238.515 125.379C238.515 125.379 238.515 125.379 238.515 125.379C238.515 125.38 238.515 125.38 238.514 125.381C238.514 125.382 238.513 125.385 238.513 125.388C238.511 125.393 238.509 125.402 238.506 125.413C238.501 125.436 238.492 125.47 238.481 125.514C238.459 125.602 238.427 125.732 238.386 125.897C238.304 126.227 238.186 126.7 238.046 127.271C237.764 128.412 237.389 129.944 237.014 131.508C236.639 133.072 236.263 134.669 235.981 135.938C235.84 136.573 235.721 137.129 235.638 137.559C235.559 137.966 235.5 138.316 235.5 138.5H236.5ZM239.315 125.112C238.396 124.365 237.604 123.751 236.905 123.332C236.211 122.916 235.541 122.651 234.876 122.69C234.185 122.731 233.605 123.093 233.083 123.695C232.569 124.288 232.076 125.152 231.547 126.289L232.453 126.711C232.973 125.596 233.419 124.835 233.839 124.35C234.25 123.876 234.599 123.708 234.935 123.688C235.298 123.667 235.755 123.809 236.391 124.19C237.021 124.568 237.763 125.139 238.685 125.888L239.315 125.112ZM40.5903 96.7133C36.529 102.517 31.0164 108.96 25.2304 114.463C19.4351 119.976 13.4062 124.507 8.31493 126.536L8.68507 127.464C13.9557 125.364 20.0958 120.728 25.9196 115.188C31.7526 109.64 37.3091 103.147 41.4097 97.2867L40.5903 96.7133ZM8.01619 126.874L5.01619 138.374L5.98381 138.626L8.98381 127.126L8.01619 126.874ZM5.96562 138.318L1.46562 126.818L0.534379 127.182L5.03438 138.682L5.96562 138.318ZM1.41606 127.277C2.12585 126.212 2.74877 125.447 3.31677 124.952C3.88292 124.459 4.35288 124.269 4.76865 124.27C5.18418 124.271 5.65101 124.462 6.21055 124.955C6.77209 125.451 7.38536 126.214 8.08216 127.275L8.91784 126.725C8.20263 125.637 7.53196 124.787 6.87195 124.205C6.20994 123.622 5.51761 123.272 4.7707 123.27C4.02403 123.269 3.32828 123.615 2.65976 124.198C1.9931 124.779 1.31239 125.63 0.583939 126.723L1.41606 127.277Z" fill="black"/>
<path d="M199.5 94.5C176.5 94.5 126.211 28.8935 120 1.5C123.307 34.8331 147.98 100.057 172.399 136.5H204C195.403 119.828 196 119.5 199.5 94.5Z" fill="#533C27" stroke="black"/>
<path d="M62.5 136.5C96.9997 90.5 107.391 58.9285 119.5 1C95.6898 65.7131 68.5 78 41 96.5C43.2074 112.203 41.551 121.365 36 136.5H62.5Z" fill="#533C27" stroke="black"/>
<path d="M120 2C128.864 30.6163 145.556 68.7441 152 70.5" stroke="black" stroke-width="0.5"/>
<path d="M119 2C110.136 30.6163 93.4436 68.7441 87 70.5" stroke="black" stroke-width="0.5"/>
<path d="M106.5 108C117.757 107.369 123.802 107.544 134.5 108" stroke="#5B575E" stroke-width="0.5"/>
<path d="M118.848 29.9906L118.01 118.991C118.004 119.547 118.453 120 119.009 120H119.576C120.127 120 120.574 119.555 120.576 119.005L120.995 30.0047C120.998 29.4506 120.549 29 119.995 29H119.848C119.299 29 118.853 29.442 118.848 29.9906Z" fill="#393939"/>
<path d="M175.5 136.5C147.133 92.6578 134.772 59.9263 119.5 1C103.53 70.3116 86.5678 102.733 62 136.5H96.5C110.667 98.2048 116.085 74.7574 120 27.5C123.88 72.061 129.087 95.5947 143.5 136.5H175.5Z" fill="#AA7A4B" stroke="black"/>
<path d="M116 120.461C118.71 119.854 120.085 119.838 122.5 120.461" stroke="black" stroke-linecap="round"/>
</svg>
